<svg width="100" height="36" viewBox="0 0 100 36" fill="none" xmlns="http://www.w3.org/2000/svg">
<path d="M51.0409 19L45 3H49.3836L53.4733 14.8774L57.5896 3H62L55.9324 19H51.0409Z" fill="white"/>
<path d="M59 19V3H72V6.36245H63.5704V8.97375H70.8529V12.3158H63.5704V15.6579H72V19H59Z" fill="white"/>
<path d="M72 19V3H78.2282C79.764 3 81.1321 3.13708 82.3324 3.41124C83.5505 3.68539 84.5037 4.18533 85.1921 4.91103C85.8983 5.63674 86.2513 6.66886 86.2513 8.00739C86.2513 8.62022 86.1277 9.23304 85.8806 9.84586C85.6335 10.4426 85.201 10.9909 84.5831 11.4908C83.9829 11.9907 83.118 12.3778 81.9882 12.6519L87 19H82.1544L77.4868 13.0632H76.3551V19H72ZM76.3551 9.87005H78.3606C79.3491 9.87005 80.17 9.75716 80.8231 9.53138C81.4939 9.28948 81.8293 8.79761 81.8293 8.05577C81.8293 7.29781 81.4939 6.80594 80.8231 6.58017C80.17 6.33826 79.3491 6.21731 78.3606 6.21731H76.3551V9.87005Z" fill="white"/>
<path d="M82 36V21H87.813C89.2464 21 90.5232 21.1285 91.6436 21.3855C92.7804 21.6426 93.6701 22.1112 94.3127 22.7916C94.9717 23.4719 95.3012 24.4396 95.3012 25.6944C95.3012 26.269 95.1859 26.8435 94.9552 27.418C94.7246 27.9774 94.3209 28.4914 93.7443 28.9601C93.1841 29.4288 92.3768 29.7917 91.3223 30.0487L96 36H91.4774L87.121 30.4342H86.0647V36H82ZM86.0647 27.4407H87.9366C88.8592 27.4407 89.6253 27.3348 90.2349 27.1232C90.861 26.8964 91.174 26.4353 91.174 25.7398C91.174 25.0292 90.861 24.5681 90.2349 24.3564C89.6253 24.1296 88.8592 24.0162 87.9366 24.0162H86.0647V27.4407Z" fill="white"/>
<path d="M88.8816 19V12.8243L82 3H86.9655L90.9865 9.18836L95.0075 3H100L93.1184 12.8243V19H88.8816Z" fill="white"/>
<path d="M42 36V21H47.799C49.24 21 50.5755 21.1272 51.8056 21.3817C53.0533 21.6213 54.134 22.0329 55.0478 22.6168C55.9791 23.1856 56.6996 23.9566 57.2092 24.9296C57.7364 25.8877 58 27.0778 58 28.5C58 29.9371 57.7364 31.1347 57.2092 32.0928C56.6996 33.0509 55.9791 33.8219 55.0478 34.4057C54.134 34.9746 53.0533 35.3862 51.8056 35.6407C50.5755 35.8802 49.24 36 47.799 36H42ZM46.1647 33.0135H47.8781C48.6337 33.0135 49.3542 32.9611 50.0395 32.8563C50.7424 32.7515 51.3663 32.5494 51.911 32.25C52.4734 31.9356 52.9127 31.479 53.229 30.8802C53.5453 30.2814 53.7035 29.488 53.7035 28.5C53.7035 27.512 53.5453 26.7186 53.229 26.1198C52.9127 25.506 52.4734 25.0494 51.911 24.75C51.3663 24.4356 50.7424 24.226 50.0395 24.1213C49.3542 24.0015 48.6337 23.9416 47.8781 23.9416H46.1647V33.0135Z" fill="white"/>
<path d="M60.6855 36L55 21H59.1258L62.9748 32.0255L66.8491 21H71L65.2893 36H60.6855Z" fill="white"/>
<path d="M69 36V21H81V24.1213H73.035V26.726H79.875V29.8473H73.035V32.8787H81V36H69Z" fill="white"/>
<path d="M96.0007 36V33.2156H96V23.7844V21H100V23.7844V33.2156V36H96.0007Z" fill="white"/>
<path fill-rule="evenodd" clip-rule="evenodd" d="M27 15H12V36H27V15ZM25.2558 26.55C25.8338 26.55 26.3023 26.0799 26.3023 25.5C26.3023 24.9201 25.8338 24.45 25.2558 24.45C24.6778 24.45 24.2093 24.9201 24.2093 25.5C24.2093 26.0799 24.6778 26.55 25.2558 26.55Z" fill="white"/>
<path fill-rule="evenodd" clip-rule="evenodd" d="M19.6813 0L39 9.77654L37.3796 12.9938L19.6659 4.02944L1.59562 13L0 9.77034L19.6813 0Z" fill="white"/>
</svg>
